<svg xmlns="http://www.w3.org/2000/svg" viewBox="0 0 160 60" width="100%" height="100%">
  <rect width="160" height="60" fill="none"/>
  <g fill="currentColor">
    <path d="M25,12 C17.8,12 12,17.8 12,25 C12,32.2 17.8,38 25,38 C32.2,38 38,32.2 38,25 C38,17.8 32.2,12 25,12 Z M25,34 C20,34 16,30 16,25 C16,20 20,16 25,16 C30,16 34,20 34,25 C34,30 30,34 25,34 Z" />
    <path d="M24,20 L26,20 L26,30 L24,30 Z M22,23 L28,23 L28,25 L22,25 Z M22,27 L28,27 L28,29 L22,29 Z" />
    <text x="50" y="36" font-family="'Plus Jakarta Sans', sans-serif" font-weight="800" font-size="20" letter-spacing="0.1em">C&amp;W</text>
    <text x="50" y="48" font-family="'Plus Jakarta Sans', sans-serif" font-weight="600" font-size="8" letter-spacing="0.05em">COMMUNICATION &amp; WORKS</text>
  </g>
</svg>
