<svg xmlns="http://www.w3.org/2000/svg" viewBox="0 0 160 60" width="100%" height="100%">
  <rect width="160" height="60" fill="none"/>
  <g fill="currentColor">
    <path d="M25,12 C18,12 12,18 12,25 C12,38 25,48 25,48 C25,48 38,38 38,25 C38,18 32,12 25,12 Z M25,16 C29.5,16 33,19.5 33,24 C33,27.5 30.5,31 25,37 C19.5,31 17,27.5 17,24 C17,19.5 20.5,16 25,16 Z" />
    <path d="M23,20 L27,20 L27,32 L23,32 Z" />
    <path d="M21,30 L29,30 L29,32 L21,32 Z" />
    <text x="50" y="36" font-family="'Plus Jakarta Sans', sans-serif" font-weight="800" font-size="20" letter-spacing="0.1em">LDA</text>
    <text x="50" y="48" font-family="'Plus Jakarta Sans', sans-serif" font-weight="600" font-size="8" letter-spacing="0.05em">LAHORE DEV. AUTHORITY</text>
  </g>
</svg>
