<svg xmlns="http://www.w3.org/2000/svg" viewBox="0 0 160 60" width="100%" height="100%">
  <rect width="160" height="60" fill="none"/>
  <g fill="currentColor">
    <path d="M25,12 C25,12 12,24 12,33 C12,39 17,44 25,44 C33,44 38,39 38,33 C38,24 25,12 25,12 Z M25,41 C21.5,41 18,37.5 18,33 C18,29 25,17 25,17 C25,17 32,29 32,33 C32,37.5 28.5,41 25,41 Z" />
    <path d="M25,23 C25,23 21,29 21,33 M25,28 C25,28 29,32 29,35" fill="none" stroke="currentColor" stroke-width="1.5" stroke-linecap="round"/>
    <text x="50" y="36" font-family="'Plus Jakarta Sans', sans-serif" font-weight="800" font-size="20" letter-spacing="0.1em">PHA</text>
    <text x="50" y="48" font-family="'Plus Jakarta Sans', sans-serif" font-weight="600" font-size="8" letter-spacing="0.05em">PARKS &amp; HORTICULTURE</text>
  </g>
</svg>
