<svg xmlns="http://www.w3.org/2000/svg" viewBox="0 0 160 60" width="100%" height="100%">
  <rect width="160" height="60" fill="none"/>
  <g fill="currentColor">
    <path d="M25,12 C25,12 14,24 14,31 C14,37 19,42 25,42 C31,42 36,37 36,31 C36,24 25,12 25,12 Z M25,38 C21.5,38 18.5,35 18.5,31.5 C18.5,29.5 20,26.5 25,21.5 C30,26.5 31.5,29.5 31.5,31.5 C31.5,35 28.5,38 25,38 Z" />
    <path d="M12,48 C16,46 20,46 24,48 C28,50 32,50 36,48 C40,46 44,46 48,48" fill="none" stroke="currentColor" stroke-width="2" stroke-linecap="round"/>
    <text x="50" y="36" font-family="'Plus Jakarta Sans', sans-serif" font-weight="800" font-size="20" letter-spacing="0.1em">WASA</text>
    <text x="50" y="48" font-family="'Plus Jakarta Sans', sans-serif" font-weight="600" font-size="8" letter-spacing="0.05em">WATER &amp; SANITATION</text>
  </g>
</svg>
